<svg xmlns="http://www.w3.org/2000/svg" xmlns:xlink="http://www.w3.org/1999/xlink" id="图层_1" width="16" height="16" x="0" y="0" enable-background="new 0 0 16 16" version="1.1" viewBox="0 0 16 16" xml:space="preserve"><g><rect width="1" height="1" x="2" y="2" fill="#444"/><rect width="1" height="1" x="3" y="3" fill="#444"/><rect width="1" height="1" x="4" y="4" fill="#444"/><rect width="1" height="1" x="5" y="5" fill="#444"/><rect width="1" height="1" x="6" y="6" fill="#444"/><rect width="1" height="1" x="7" y="7" fill="#444"/><rect width="1" height="1" x="8" y="8" fill="#444"/><rect width="1" height="1" x="9" y="9" fill="#444"/><rect width="1" height="1" x="10" y="10" fill="#444"/><rect width="1" height="1" x="11" y="11" fill="#444"/><rect width="1" height="1" x="12" y="12" fill="#444"/><rect width="1" height="1" x="5" y="9" fill="#444"/><rect width="1" height="1" x="4" y="10" fill="#444"/><rect width="1" height="1" x="3" y="11" fill="#444"/><rect width="1" height="1" x="2" y="12" fill="#444"/><rect width="1" height="1" x="6" y="8" fill="#444"/><rect width="1" height="1" x="8" y="6" fill="#444"/><rect width="1" height="1" x="9" y="5" fill="#444"/><rect width="1" height="1" x="10" y="4" fill="#444"/><rect width="1" height="1" x="11" y="3" fill="#444"/><rect width="1" height="1" x="12" y="2" fill="#444"/></g></svg>