<svg xmlns="http://www.w3.org/2000/svg" xmlns:xlink="http://www.w3.org/1999/xlink" id="图层_1" width="16" height="16" x="0" y="0" enable-background="new 0 0 16 16" version="1.1" viewBox="0 0 16 16" xml:space="preserve"><g><path fill="#888" d="M0,0v16h16V0H0z M14,14H2V2h12V14z"/><path fill="#888" d="M8,5c0.551,0,1,0.449,1,1S8.578,6.922,8,7.078v0.014C7.419,7.298,7,7.848,7,8.5V10h2V8.816 C10.163,8.403,11,7.304,11,6c0-1.657-1.343-3-3-3S5,4.343,5,6h2C7,5.449,7.449,5,8,5z"/><rect width="2" height="2" x="7" y="11" fill="#888"/></g></svg>