<svg xmlns="http://www.w3.org/2000/svg" xmlns:xlink="http://www.w3.org/1999/xlink" id="图层_1" width="32" height="32" x="0" y="0" enable-background="new 0 0 32 32" version="1.1" viewBox="0 0 32 32" xml:space="preserve"><g><polygon fill="#0ABF5B" points="13.25 17.811 9.886 14.447 7.765 16.568 11.129 19.932 11.129 19.932 13.25 22.053 13.25 22.053 13.25 22.053 15.371 19.932 23.235 12.068 21.114 9.947"/><path fill="#0ABF5B" d="M15.5,0C6.94,0,0,6.94,0,15.5S6.94,31,15.5,31S31,24.06,31,15.5S24.06,0,15.5,0z M15.5,28 C8.607,28,3,22.393,3,15.5S8.607,3,15.5,3S28,8.607,28,15.5S22.393,28,15.5,28z"/></g></svg>