<svg xmlns="http://www.w3.org/2000/svg" xmlns:xlink="http://www.w3.org/1999/xlink" id="图层_1" width="16" height="16" x="0" y="0" enable-background="new 0 0 16 16" version="1.1" viewBox="0 0 16 16" xml:space="preserve"><path fill="#888" fill-rule="evenodd" d="M9,8H7l0,0H6l0,0H5V3h6v5h-1 M10,4H6v3h4V4z" clip-rule="evenodd"/><path fill="#888" fill-rule="evenodd" d="M7,5h2v1H7V5z" clip-rule="evenodd"/><path fill="#888" fill-rule="evenodd" d="M6,8h1v4H6V8z" clip-rule="evenodd"/><path fill="#888" fill-rule="evenodd" d="M7,12h2v1H7V12z" clip-rule="evenodd"/><path fill="#888" fill-rule="evenodd" d="M9,9h1v1H9V9z" clip-rule="evenodd"/><path fill="#888" fill-rule="evenodd" d="M9,11h1v1H9V11z" clip-rule="evenodd"/><path fill="#888" fill-rule="evenodd" d="M8,8h1v1H8V8z" clip-rule="evenodd"/><path fill="#888" fill-rule="evenodd" d="M8,10h1v1H8V10z" clip-rule="evenodd"/><g><g><path fill="#888" d="M14,1v14H2V1H14 M15,0H1v16h14V0L15,0z"/></g></g></svg>