<svg xmlns="http://www.w3.org/2000/svg" xmlns:xlink="http://www.w3.org/1999/xlink" id="图层_1" width="16" height="16" x="0" y="0" enable-background="new 0 0 16 16" version="1.1" viewBox="0 0 16 16" xml:space="preserve"><g><polygon fill="#888" points="9 7 6.917 7 6 7 6 8 7 8 7 12 8.917 12 9.917 11 9 11"/><rect width="2" height="2" x="7" y="4" fill="#888"/><path fill="#888" d="M8,1C4.134,1,1,4.134,1,8c0,3.866,3.134,7,7,7c3.866,0,7-3.134,7-7C15,4.134,11.866,1,8,1z M8,13.5 c-3.033,0-5.5-2.467-5.5-5.5S4.967,2.5,8,2.5s5.5,2.467,5.5,5.5S11.033,13.5,8,13.5z"/></g></svg>