<svg xmlns="http://www.w3.org/2000/svg" xmlns:xlink="http://www.w3.org/1999/xlink" id="图层_1" width="16" height="16" x="0" y="0" enable-background="new 0 0 16 16" version="1.1" viewBox="0 0 16 16" xml:space="preserve"><g><polygon fill="#FF9D00" points="8 4 8 8.996 7.998 8.998 8 8.999 8 9 8.001 9 10.336 11.335 11.75 9.921 10 8.171 10 4"/><path fill="#FF9D00" d="M9,1C5.134,1,2,4.134,2,8H0l3.109,3l3.109-3H4c0-2.757,2.243-5,5-5s5,2.243,5,5s-2.243,5-5,5 c-1.166,0-2.225-0.413-3.069-1.089L4.483,13.32C5.702,14.361,7.271,15,9,15c3.866,0,7-3.134,7-7C16,4.134,12.866,1,9,1z"/></g></svg>