<svg xmlns="http://www.w3.org/2000/svg" viewBox="0 0 92.34 130.21"><defs><style>.cls-1,.cls-4,.cls-5{fill:none;stroke-miterlimit:10}.cls-1,.cls-5{stroke:#ddd}.cls-1,.cls-4{stroke-width:4px}.cls-2{fill:#eee}.cls-3{fill:#ddd}.cls-4{stroke:#eee}.cls-5{stroke-width:3px}</style></defs><title>no-server</title><g id="图层_2" data-name="图层 2"><g id="图层_1-2" data-name="图层 1"><ellipse cx="68.75" cy="101.89" class="cls-1" rx="12.18" ry="12.17" transform="translate(-53.77 92.03) rotate(-51.39)"/><path d="M79.11,108.37l-3.53,3.69L86.92,123a1.89,1.89,0,0,0,1.33.52,2.24,2.24,0,0,0,1.63-.72l.5-.52a2.12,2.12,0,0,0,.07-3L79.11,108.37Z" class="cls-2"/><path d="M79.9,107.54l-5,5.26,12,11.5a1.64,1.64,0,0,0,1.17.43,3.68,3.68,0,0,0,2.51-1.22l.71-.75c1.19-1.24,1.47-2.92.64-3.72l-12-11.5Z" class="cls-3"/><path d="M76.07,101.66c-.69-5.15-4-7.6-8.91-6.93" class="cls-4"/><rect width="57.5" height="15.18" x="17.25" y="20.01" class="cls-5"/><line x1="23.58" x2="23.58" y1="23.77" y2="31.43" class="cls-5"/><line x1="28.83" x2="28.83" y1="23.77" y2="31.43" class="cls-5"/><line x1="34.08" x2="34.08" y1="23.77" y2="31.43" class="cls-5"/><rect width="57.5" height="15.18" x="17.25" y="42.26" class="cls-5"/><line x1="23.58" x2="23.58" y1="46.01" y2="53.68" class="cls-5"/><line x1="28.83" x2="28.83" y1="46.01" y2="53.68" class="cls-5"/><line x1="34.08" x2="34.08" y1="46.01" y2="53.68" class="cls-5"/><rect width="57.5" height="15.18" x="17.25" y="64.51" class="cls-5"/><line x1="23.58" x2="23.58" y1="68.26" y2="75.93" class="cls-5"/><line x1="28.83" x2="28.83" y1="68.26" y2="75.93" class="cls-5"/><line x1="34.08" x2="34.08" y1="68.26" y2="75.93" class="cls-5"/><path d="M5,18.47H0V127.71a2.5,2.5,0,0,0,2.5,2.5l54.64-.29v-5L5,125.21Z" class="cls-3"/><path d="M89.5,0H0V5H87V85.73h5V2.5A2.5,2.5,0,0,0,89.5,0Z" class="cls-3"/></g></g></svg>